<?xml version="1.0" standalone="no"?>
<!DOCTYPE svg PUBLIC "-//W3C//DTD SVG 20010904//EN"
 "http://www.w3.org/TR/2001/REC-SVG-20010904/DTD/svg10.dtd">
<svg version="1.0" xmlns="http://www.w3.org/2000/svg"
 width="96.000000pt" height="96.000000pt" viewBox="0 0 96.000000 96.000000"
 preserveAspectRatio="xMidYMid meet">

<g transform="translate(0.000000,96.000000) scale(0.100000,-0.100000)"
fill="#000000" stroke="none">
<path d="M378 871 c-128 -42 -225 -132 -280 -259 -31 -72 -33 -84 -33 -187 0
-102 2 -115 31 -175 75 -158 193 -222 379 -206 192 17 304 84 373 223 88 175
61 351 -74 494 -111 116 -256 156 -396 110z m196 -17 c19 -19 22 -128 5 -202
-10 -42 -16 -50 -43 -58 -40 -12 -55 -51 -38 -97 12 -30 11 -34 -18 -59 -17
-16 -34 -28 -39 -28 -23 0 -91 215 -91 288 0 33 25 46 52 28 34 -24 85 -20
113 9 14 13 25 31 25 38 0 8 9 17 20 20 11 3 20 11 20 17 0 8 -8 10 -22 7 -13
-4 -29 0 -38 8 -29 27 -73 29 -103 5 -15 -12 -27 -30 -27 -40 0 -11 -9 -24
-20 -30 -18 -10 -20 -8 -20 17 0 54 10 71 48 81 61 16 158 14 176 -4z m56
-113 c0 -54 -5 -112 -11 -129 -8 -24 -7 -35 6 -56 9 -14 15 -39 13 -57 -2 -28
-8 -34 -35 -41 -23 -6 -33 -15 -33 -27 0 -29 -83 -134 -142 -179 -100 -76
-225 -125 -248 -97 -8 9 0 14 31 18 114 15 286 144 323 241 11 30 15 51 9 55
-14 8 -33 47 -33 65 0 22 28 46 54 46 19 0 24 8 34 58 7 32 12 93 12 136 0 49
4 75 10 71 6 -3 10 -50 10 -104z m-341 -47 c-24 -24 -45 -41 -47 -39 -3 3 3
34 13 70 12 45 25 72 44 86 l26 21 3 -48 c3 -44 0 -50 -39 -90z m195 126 c20
-7 26 -17 26 -39 0 -32 -22 -51 -60 -51 -40 0 -47 77 -8 93 7 3 14 6 15 6 1 1
13 -3 27 -9z m190 -77 l-8 -48 -6 50 c-8 54 -4 73 12 57 7 -7 7 -28 2 -59z
m65 -5 c-17 -31 7 -75 47 -90 29 -10 33 -15 27 -37 -3 -14 -14 -35 -24 -47
-25 -27 -24 -61 1 -76 25 -16 25 -44 1 -108 -18 -46 -100 -172 -121 -185 -14
-8 -58 17 -110 63 l-44 39 37 54 c20 30 37 59 37 66 0 6 13 16 29 21 46 16 56
44 37 103 -15 45 -15 51 0 73 19 30 44 120 44 160 l0 29 25 -23 c20 -18 22
-26 14 -42z m81 -68 c0 -10 -27 -3 -47 13 -7 5 -13 21 -13 36 l1 26 29 -33
c17 -18 30 -37 30 -42z m-446 -180 c37 -102 37 -102 -11 -116 -49 -14 -59 -4
-41 44 18 47 0 93 -45 117 -51 27 -50 58 5 120 l42 48 12 -69 c6 -38 24 -103
38 -144z m-226 23 c-6 -7 -10 -29 -10 -49 0 -42 34 -84 68 -84 28 0 35 -18 27
-79 l-6 -50 -37 19 c-21 11 -54 38 -74 61 -33 39 -36 48 -36 106 0 48 8 84 32
146 l33 82 6 -70 c4 -41 2 -75 -3 -82z m717 67 c7 -22 6 -23 -9 -11 -9 7 -16
25 -16 40 1 29 11 17 25 -29z m-20 -30 c11 -18 -6 -50 -25 -50 -25 0 -30 10
-19 38 9 23 33 30 44 12z m16 -199 c-29 -95 -71 -156 -111 -165 -59 -11 -60
-7 -6 69 53 73 86 147 86 192 0 13 9 32 20 43 11 11 21 28 22 38 1 9 3 -12 5
-47 3 -44 -2 -84 -16 -130z m-352 60 c-14 -40 -36 -58 -51 -43 -9 9 -4 19 22
42 19 16 36 29 37 30 1 0 -3 -13 -8 -29z m-69 -57 c11 -13 8 -20 -19 -47 l-32
-32 -24 30 c-27 33 -26 35 18 52 42 15 43 15 57 -3z m-306 -73 c9 -10 34 -26
56 -36 45 -20 52 -42 16 -51 -38 -9 -59 -1 -77 31 -36 64 -33 98 5 56z m381
-11 c4 -6 29 -29 57 -50 57 -46 48 -52 -18 -14 -38 23 -49 25 -70 15 -14 -6
-29 -11 -34 -11 -20 0 -9 29 18 49 31 23 38 25 47 11z m-97 -129 c22 -22 49
-44 61 -50 31 -17 70 -13 83 9 13 21 47 25 82 11 28 -11 -79 -39 -181 -47 -93
-8 -106 -2 -130 55 -14 32 -13 36 3 48 27 20 38 16 82 -26z m-175 -25 c4 -10
1 -13 -9 -9 -15 6 -19 23 -5 23 5 0 11 -7 14 -14z"/>
</g>
</svg>
